<svg width="921" height="1562" viewBox="0 0 921 1562" fill="none" xmlns="http://www.w3.org/2000/svg">
<path d="M211.656 1198L107.156 1170.5L3.15616 1198L1.15616 1348C2.75616 1353.6 5.15616 1350.33 6.15616 1348V1201.5C8.15616 1199.9 10.6562 1200.17 11.6562 1200.5L104.156 1224.5C107.156 1225 106.656 1230 106.656 1231.5V1384C109.456 1386.4 108.656 1382.5 108.656 1379.5L110.656 1226.5C110.656 1224 112.656 1224.5 115.156 1224L211.656 1199.5C213.256 1201.9 213.323 1204.5 213.156 1205.5V1352L107.156 1391L1.15616 1355C-3.24384 1374.6 86.6565 1412 104.156 1484C110.656 1510.74 111.823 1542.83 108.656 1561M569.358 80.7232C564.188 77.2512 559.972 70.9572 570.574 64C572.974 62.8 572.907 60.5 572.574 59.5C571.24 53.6667 572.074 40.6 586.074 35C572.874 21.4 574.574 6.66667 577.074 1L579.574 2.5C580.307 2.5 581.483 3.4279 582.946 5M569.358 80.7232C570.43 81.4433 571.543 82.042 572.574 82.5C576.24 83.6667 584.073 84.5 586.074 78.5C588.074 72.5 582.574 69 579.574 68C575.394 67.5177 567.739 69.4548 569.358 80.7232ZM569.358 80.7232C569.417 81.1362 569.489 81.5617 569.574 82C575.574 96 586.74 90.5 591.574 86C592.074 85.3333 594.074 84.7 598.074 87.5C603.274 91.9 604.907 96.3333 605.074 98C600.074 109.5 598.574 126 600.074 133C603.074 152.5 617.74 177 628.074 186.5C632.574 192 634.24 217.333 633.074 231C633.074 240.5 631.24 247.5 628.074 250.5C624.574 250.5 623.074 251 619.574 252C619.074 252.143 616.074 253.3 614.574 254C608.574 256.8 613.574 263.5 618.074 266C619.574 267 621.907 267.167 623.074 267M582.946 5C588.662 11.1406 598.766 27.1095 604.074 36C590.474 40.4 584.322 17.1667 582.946 5ZM582.946 5C588.248 3 603.574 11.5 610.574 16C640.974 16 654.574 59.5 658.074 73L659.574 77.5C659.24 76.5 662.407 83.3333 665.074 87.5L668.074 91C672.074 96 689.574 101.75 703.574 110.5C708.574 113.625 722.574 123 728.074 127.5C732.574 131.182 740.24 139.667 744.074 145C746.574 148.478 748.74 154.5 751.074 161.5C753.407 168.5 755.24 197.5 754.074 207C754.074 211.8 750.074 224.667 748.074 231C746.337 236.5 747.867 240.69 749.074 242.5C751.074 245.5 751.774 245.9 752.574 246.5C754.574 248 756.074 249.5 757.074 250.5L761.574 255C765.074 259 763.165 266 762.074 269C760.074 274.5 749.907 284.667 744.074 289C737.461 294.621 720.599 301.619 709.585 306.353M709.585 306.353C707.274 307.346 705.221 308.24 703.574 309C697.074 312 680.074 320.5 674.574 326.5C670.273 331.191 664.074 339 661.574 343C659.074 347 654.074 358.833 653.074 362.5C652.074 366.167 651.469 373 652.574 380C654.074 389.5 664.574 402 669.074 405C675.44 409.244 675.074 422.5 672.074 428C659.674 444.8 637.074 435.135 628.574 425C615.574 409.5 611.74 384.5 612.074 373C612.074 351 628.074 329 637.074 319.5C646.674 309.1 666.407 298.5 675.074 295.5C679.861 293.373 687.099 290.915 694.081 288.88M709.585 306.353C707.96 305.918 706.55 305.459 705.5 305C699.5 302.377 696.5 299 695 293.5C695 293.5 694.544 291.526 694.081 288.88M709.585 306.353C715.037 307.813 722.894 309 727.574 309C738.074 309 777.074 306.5 806.574 317.5C843.074 338.5 809.074 404 797.574 430C768.387 487.712 760.761 618.909 781.994 707.563M694.081 288.88C700.226 287.088 706.173 285.624 710.074 285C720.074 283.4 730.074 276.667 734.074 272.5C742.074 265.3 736.407 257.167 732.574 254C728.738 252.144 722.923 250.846 716.275 249.959M694.081 288.88C693.356 284.735 692.613 278.941 693.574 276.5C695.771 270.917 698.422 268.156 706.074 262.5C709.424 260.024 712.944 255.468 716.275 249.959M716.275 249.959C704.776 248.423 690.788 248.115 680.251 248.268M716.275 249.959C724.378 236.555 731.365 217.504 732.074 209C732.074 207 733.574 199.5 728.074 185C726.765 181.55 723.774 174.3 712.574 167.5L712.371 167.413C709.923 166.36 704.351 163.963 696.574 165C694.074 165.333 682.874 169.9 676.074 175.5C670.907 179.333 665.574 183.1 659.574 191.5C654.574 196.667 645.274 210.6 648.074 225C649.741 231.167 655.874 243.5 667.074 243.5C670.468 243.617 676.245 244.802 680.251 248.268M680.251 248.268C677.184 248.313 674.409 248.396 672.074 248.5C654.874 250.1 641.574 254.5 637.074 258C628.674 266.8 644.241 267 653.074 266C669.474 264.8 681.574 258 684.074 254C683.329 251.618 681.949 249.738 680.251 248.268ZM781.994 707.563C792.77 752.555 810.979 786.589 837.574 794.5C903.074 810 946.074 761.5 903.074 721C888.243 707.031 837.918 704.081 781.994 707.563ZM781.994 707.563C730.45 710.773 674.15 719.448 636.5 730C596.646 741.169 476.5 788.268 432.499 825.5C412.999 842 373.498 874 357.999 892C342.5 910 299.5 982 264.5 996.5C238 1007.48 205.5 1000.5 187.5 1003C157.5 1003 132.5 1013 126 1031.5C117.919 1054.5 129 1080.5 140 1093.5C146.8 1106.3 156.5 1122.5 162.5 1131C167.5 1140 199.834 1177.67 211.5 1198.5" stroke="black"/>
</svg>
